<svg width="70" height="79" viewBox="0 0 70 79" fill="none" xmlns="http://www.w3.org/2000/svg">
<path d="M31.2593 1.77479C32.8435 -0.591597 36.3229 -0.591596 37.9071 1.77479L46.6633 14.8544C47.3537 15.8857 48.4837 16.5381 49.7221 16.6204L65.4274 17.6636C68.2688 17.8524 70.0086 20.8657 68.7513 23.4208L61.8022 37.5437C61.2542 38.6573 61.2542 39.9621 61.8022 41.0757L68.7513 55.1985C70.0086 57.7536 68.2688 60.767 65.4274 60.9557L49.7221 61.999C48.4837 62.0812 47.3537 62.7337 46.6633 63.765L37.9071 76.8445C36.3229 79.2109 32.8435 79.2109 31.2593 76.8445L22.5031 63.765C21.8127 62.7337 20.6827 62.0812 19.4443 61.999L3.739 60.9557C0.897551 60.767 -0.842182 57.7536 0.415076 55.1985L7.36423 41.0757C7.91217 39.9621 7.91217 38.6573 7.36423 37.5437L0.415076 23.4208C-0.842182 20.8657 0.897551 17.8524 3.739 17.6636L19.4443 16.6204C20.6827 16.5381 21.8127 15.8857 22.5031 14.8544L31.2593 1.77479Z" fill="url(#paint0_linear_1_65)"/>
<path d="M28.0288 49.3004V29.8804H40.9516V33.2657H32.1553V37.8931H40.0939V41.2783C40.0939 41.2783 35.7389 40.4342 33.5126 42.6153C31.2863 44.7965 32.1553 49.3004 32.1553 49.3004H28.0288Z" fill="white"/>
<path d="M16.1805 41.4111C17.2796 41.4111 18.042 41.6292 18.4677 42.0653C18.8934 42.5015 19.1062 43.2064 19.1062 44.1799V46.285C19.1062 47.4545 19.2683 48.3933 19.5923 49.1013C19.9227 49.803 20.3801 50.334 20.9646 50.6943C21.5555 51.0547 22.2544 51.2949 23.0612 51.415C23.8681 51.5351 24.7512 51.5952 25.7106 51.5952V48.5703C24.9609 48.5703 24.3891 48.4755 23.9952 48.2858C23.6076 48.0898 23.344 47.7927 23.2042 47.3945C23.0644 46.9899 22.9945 46.4842 22.9945 45.8773V43.1084C22.9945 42.6216 22.9056 42.1633 22.7277 41.7335C22.5498 41.2973 22.2194 40.9148 21.7366 40.5861C21.2537 40.251 20.5643 39.9887 19.6685 39.799L19.6018 39.7847V39.4052L19.6685 39.3913C20.5643 39.1953 21.2537 38.933 21.7366 38.6043C22.2194 38.2692 22.5498 37.8868 22.7277 37.4569C22.9056 37.0207 22.9945 36.5624 22.9945 36.0819V33.3131C22.9945 32.6999 23.0644 32.1941 23.2042 31.7959C23.344 31.3913 23.6076 31.0942 23.9952 30.9045C24.3891 30.7086 24.9609 30.6106 25.7106 30.6106V27.5952C24.7512 27.5952 23.8681 27.6552 23.0612 27.7753C22.2544 27.8955 21.5555 28.1357 20.9646 28.496C20.3801 28.8563 19.9227 29.3905 19.5923 30.0985C19.2683 30.8002 19.1062 31.7358 19.1062 32.9053V35.0009C19.1062 35.9745 18.8934 36.6793 18.4677 37.1155C18.042 37.5517 17.2796 37.7698 16.1805 37.7698V41.4111Z" fill="white"/>
<path d="M45.2998 27.7753C44.4992 27.6552 43.6161 27.5952 42.6504 27.5952V30.6106C43.4001 30.6106 43.9687 30.7086 44.3563 30.9045C44.7502 31.0942 45.017 31.3913 45.1568 31.7959C45.2966 32.1941 45.3665 32.6999 45.3665 33.3131V36.0819C45.3665 36.5624 45.4554 37.0207 45.6333 37.4569C45.8112 37.8868 46.1416 38.2692 46.6244 38.6043C47.1073 38.933 47.7966 39.1953 48.6925 39.3913L48.7592 39.4052V39.7847L48.6925 39.799C47.7966 39.9887 47.1073 40.251 46.6244 40.5861C46.1416 40.9148 45.8112 41.2973 45.6333 41.7335C45.4554 42.1633 45.3665 42.6216 45.3665 43.1084V45.8773C45.3665 46.4842 45.2966 46.9899 45.1568 47.3945C45.017 47.7927 44.7502 48.0898 44.3563 48.2858C43.9687 48.4755 43.4001 48.5703 42.6504 48.5703V51.5952C43.6161 51.5952 44.4992 51.5351 45.2998 51.415C46.1066 51.2949 46.8023 51.0547 47.3869 50.6943C47.9777 50.334 48.4352 49.803 48.7592 49.1013C49.0896 48.3933 49.2548 47.4545 49.2548 46.285V44.1799C49.2548 43.2064 49.4676 42.5015 49.8933 42.0653C50.3253 41.6292 51.0877 41.4111 52.1805 41.4111V37.7698C51.0877 37.7698 50.3253 37.5517 49.8933 37.1155C49.4676 36.6793 49.2548 35.9745 49.2548 35.0009V32.9053C49.2548 31.7358 49.0896 30.8002 48.7592 30.0985C48.4352 29.3905 47.9777 28.8563 47.3869 28.496C46.8023 28.1357 46.1066 27.8955 45.2998 27.7753Z" fill="white"/>
<defs>
<linearGradient id="paint0_linear_1_65" x1="59.8086" y1="7.86193" x2="-1.87931" y2="60.5246" gradientUnits="userSpaceOnUse">
<stop stop-color="#0CC27E"/>
<stop offset="0.5" stop-color="#40AA54"/>
<stop offset="1" stop-color="#44D760"/>
</linearGradient>
</defs>
</svg>
